<?xml version="1.0" encoding="UTF-8" standalone="no"?>
<svg
   xmlns:dc="http://purl.org/dc/elements/1.1/"
   xmlns:cc="http://creativecommons.org/ns#"
   xmlns:rdf="http://www.w3.org/1999/02/22-rdf-syntax-ns#"
   xmlns:svg="http://www.w3.org/2000/svg"
   xmlns="http://www.w3.org/2000/svg"
   viewBox="0 0 600 257.16836"
   height="600"
   width="600"
   xml:space="preserve"
   id="svg3718"
   version="1.1"><metadata
     id="metadata3724"><rdf:RDF><cc:Work
         rdf:about=""><dc:format>image/svg+xml</dc:format><dc:type
           rdf:resource="http://purl.org/dc/dcmitype/StillImage" /><dc:title></dc:title></cc:Work></rdf:RDF></metadata><defs
     id="defs3722"><clipPath
       id="clipPath3734"
       clipPathUnits="userSpaceOnUse"><path
         id="path3732"
         d="M 0,504.05 H 1176.118 V 0 H 0 Z" /></clipPath></defs><g
     transform="matrix(1.3333333,0,0,-1.3333333,0,-295.93333)"
     id="g3726"><g
       transform="matrix(1.3811378,0,0,1.2376531,-97.39042,-650.35939)"
       id="g3728"><g
         clip-path="url(#clipPath3734)"
         id="g3730"><g
           transform="translate(235.3251,259.582)"
           id="g3822"><path
             id="path3824"
             style="fill:#ba2426;fill-opacity:1;fill-rule:nonzero;stroke:none"
             d="m 0,0 c -1.675,2.901 -0.677,6.608 2.217,8.281 l 145.409,83.958 c 2.901,1.676 6.605,0.682 8.28,-2.217 1.673,-2.896 0.678,-6.607 -2.217,-8.276 L 8.281,-2.217 C 7.326,-2.767 6.285,-3.028 5.256,-3.026 3.161,-3.026 1.125,-1.942 0,0" /></g><g
           transform="translate(235.1485,231.8478)"
           id="g3826"><path
             id="path3828"
             style="fill:#ba2426;fill-opacity:1;fill-rule:nonzero;stroke:none"
             d="m 0,0 c -1.672,2.901 -0.681,6.605 2.221,8.281 l 145.273,83.885 c 2.901,1.675 6.605,0.684 8.281,-2.218 1.676,-2.896 0.678,-6.601 -2.223,-8.276 L 8.28,-2.217 C 7.325,-2.769 6.282,-3.031 5.256,-3.031 3.16,-3.031 1.123,-1.942 0,0" /></g><g
           transform="translate(234.9707,204.1202)"
           id="g3830"><path
             id="path3832"
             style="fill:#ba2426;fill-opacity:1;fill-rule:nonzero;stroke:none"
             d="m 0,0 c -1.674,2.897 -0.677,6.605 2.219,8.276 l 145.14,83.813 c 2.9,1.676 6.605,0.685 8.28,-2.216 1.673,-2.897 0.678,-6.605 -2.218,-8.281 L 8.281,-2.217 C 7.325,-2.769 6.285,-3.031 5.256,-3.031 3.16,-3.031 1.123,-1.944 0,0" /></g><g
           transform="translate(234.7909,176.3881)"
           id="g3834"><path
             id="path3836"
             style="fill:#ba2426;fill-opacity:1;fill-rule:nonzero;stroke:none"
             d="m 0,0 c -1.674,2.897 -0.678,6.605 2.219,8.28 l 145.009,83.738 c 2.898,1.671 6.608,0.678 8.281,-2.217 1.672,-2.901 0.678,-6.605 -2.221,-8.28 L 8.281,-2.217 C 7.325,-2.769 6.285,-3.031 5.256,-3.031 3.16,-3.031 1.123,-1.944 0,0" /></g><g
           transform="translate(234.6131,148.6556)"
           id="g3838"><path
             id="path3840"
             style="fill:#ba2426;fill-opacity:1;fill-rule:nonzero;stroke:none"
             d="m 0,0 c -1.67,2.895 -0.677,6.605 2.223,8.279 l 144.878,83.666 c 2.897,1.675 6.605,0.68 8.281,-2.217 1.673,-2.901 0.678,-6.605 -2.219,-8.281 L 8.281,-2.219 C 7.329,-2.77 6.285,-3.033 5.256,-3.033 3.163,-3.033 1.123,-1.946 0,0" /></g><g
           transform="translate(234.4397,120.9197)"
           id="g3842"><path
             id="path3844"
             style="fill:#ba2426;fill-opacity:1;fill-rule:nonzero;stroke:none"
             d="m 0,0 c -1.671,2.901 -0.68,6.605 2.217,8.28 l 144.744,83.59 c 2.897,1.674 6.605,0.682 8.28,-2.218 1.669,-2.894 0.677,-6.601 -2.217,-8.275 L 8.283,-2.217 C 7.331,-2.769 6.287,-3.031 5.258,-3.031 3.166,-3.031 1.126,-1.942 0,0" /></g><g
           transform="translate(234.2652,93.185)"
           id="g3846"><path
             id="path3848"
             style="fill:#ba2426;fill-opacity:1;fill-rule:nonzero;stroke:none"
             d="M 0,0 C -1.676,2.901 -0.679,6.605 2.217,8.281 L 146.828,91.8 c 2.894,1.673 6.605,0.682 8.281,-2.212 1.673,-2.902 0.677,-6.606 -2.219,-8.281 L 8.278,-2.217 C 7.325,-2.767 6.282,-3.028 5.256,-3.028 3.16,-3.028 1.123,-1.941 0,0" /></g><g
           transform="translate(239.0185,90.6006)"
           id="g3850"><path
             id="path3852"
             style="fill:#641111;fill-opacity:1;fill-rule:nonzero;stroke:none"
             d="m 0,0 c -3.347,0.032 -6.039,2.766 -6.007,6.114 l 1.505,165.957 c 0.028,3.347 2.766,6.033 6.113,6.005 3.347,-0.032 6.037,-2.771 6.005,-6.118 L 6.114,6.007 C 6.085,2.678 3.376,0 0.053,0 Z" /></g><g
           transform="translate(212.692,105.9778)"
           id="g3854"><path
             id="path3856"
             style="fill:#641111;fill-opacity:1;fill-rule:nonzero;stroke:none"
             d="m 0,0 c -3.348,0.028 -6.04,2.762 -6.012,6.109 l 1.251,165.923 c 0.024,3.346 2.759,6.038 6.105,6.012 3.345,-0.025 6.042,-2.758 6.016,-6.105 L 6.109,6.016 C 6.08,2.684 3.368,0 0.043,0 Z" /></g><g
           transform="translate(186.3667,121.3656)"
           id="g3858"><path
             id="path3860"
             style="fill:#641111;fill-opacity:1;fill-rule:nonzero;stroke:none"
             d="m 0,0 c -3.344,0.017 -6.04,2.749 -6.021,6.094 l 1.001,165.888 c 0.023,3.347 2.749,6.045 6.1,6.021 3.345,-0.017 6.041,-2.75 6.02,-6.094 L 6.101,6.025 C 6.079,2.687 3.371,0 0.034,0 Z" /></g><g
           transform="translate(160.0414,136.745)"
           id="g3862"><path
             id="path3864"
             style="fill:#641111;fill-opacity:1;fill-rule:nonzero;stroke:none"
             d="m 0,0 c -3.344,0.013 -6.048,2.74 -6.031,6.086 l 0.749,165.855 c 0.015,3.351 2.741,6.05 6.088,6.038 3.344,-0.02 6.049,-2.741 6.031,-6.088 L 6.088,6.031 C 6.073,2.693 3.361,0 0.027,0 Z" /></g><g
           transform="translate(133.7193,152.1217)"
           id="g3866"><path
             id="path3868"
             style="fill:#641111;fill-opacity:1;fill-rule:nonzero;stroke:none"
             d="m 0,0 c -3.344,0.011 -6.055,2.733 -6.04,6.079 l 0.503,165.824 c 0.008,3.35 2.731,6.054 6.078,6.042 3.345,-0.012 6.055,-2.728 6.04,-6.08 L 6.079,6.047 C 6.071,2.702 3.355,0 0.017,0 Z" /></g><g
           transform="translate(107.3917,167.5058)"
           id="g3870"><path
             id="path3872"
             style="fill:#641111;fill-opacity:1;fill-rule:nonzero;stroke:none"
             d="m 0,0 c -3.349,0.004 -6.055,2.723 -6.051,6.068 l 0.25,165.793 c 0.004,3.348 2.723,6.059 6.07,6.049 3.349,0 6.055,-2.718 6.05,-6.069 L 6.071,6.051 C 6.064,2.708 3.352,0 0.009,0 Z" /></g><g
           transform="translate(75.0077,188.9466)"
           id="g3874"><path
             id="path3876"
             style="fill:#641111;fill-opacity:1;fill-rule:nonzero;stroke:none"
             d="m 0,0 v 165.758 c 0,3.351 2.714,6.062 6.064,6.062 3.344,0 6.059,-2.711 6.059,-6.062 L 12.123,0 c 0,-3.349 -2.715,-6.06 -6.059,-6.06 C 2.714,-6.06 0,-3.349 0,0" /></g><g
           transform="translate(237.5483,257.3649)"
           id="g3878"><path
             id="path3880"
             style="fill:#da1b35;fill-opacity:1;fill-rule:nonzero;stroke:none"
             d="m 0,0 -159.507,92.094 c -2.902,1.672 -3.895,5.38 -2.219,8.276 1.67,2.902 5.379,3.895 8.276,2.219 L 6.057,10.5 C 8.955,8.825 9.946,5.121 8.276,2.219 7.151,0.275 5.114,-0.811 3.02,-0.811 1.993,-0.811 0.953,-0.549 0,0" /></g><g
           transform="translate(261.7086,271.3526)"
           id="g3882"><path
             id="path3884"
             style="fill:#da1b35;fill-opacity:1;fill-rule:nonzero;stroke:none"
             d="m 0,0 -159.736,91.912 c -2.898,1.667 -3.898,5.373 -2.229,8.276 1.669,2.902 5.378,3.897 8.278,2.228 L 6.047,10.504 C 8.947,8.835 9.946,5.131 8.272,2.226 7.153,0.279 5.116,-0.809 3.018,-0.809 1.994,-0.809 0.953,-0.55 0,0" /></g><g
           transform="translate(285.8668,285.3355)"
           id="g3886"><path
             id="path3888"
             style="fill:#da1b35;fill-opacity:1;fill-rule:nonzero;stroke:none"
             d="m 0,0 -159.963,91.739 c -2.903,1.664 -3.908,5.37 -2.242,8.269 1.666,2.904 5.37,3.91 8.276,2.244 L 6.032,10.513 C 8.935,8.848 9.934,5.142 8.274,2.243 7.153,0.29 5.111,-0.805 3.01,-0.805 1.987,-0.805 0.95,-0.546 0,0" /></g><g
           transform="translate(310.024,299.3205)"
           id="g3890"><path
             id="path3892"
             style="fill:#da1b35;fill-opacity:1;fill-rule:nonzero;stroke:none"
             d="m 0,0 -160.189,91.566 c -2.904,1.658 -3.914,5.362 -2.255,8.272 1.664,2.903 5.363,3.914 8.27,2.249 L 6.014,10.524 C 8.924,8.863 9.931,5.159 8.27,2.256 7.153,0.297 5.108,-0.801 3.003,-0.801 1.984,-0.801 0.949,-0.543 0,0" /></g><g
           transform="translate(334.1908,313.2991)"
           id="g3894"><path
             id="path3896"
             style="fill:#da1b35;fill-opacity:1;fill-rule:nonzero;stroke:none"
             d="m 0,0 -160.42,91.394 c -2.907,1.657 -3.918,5.357 -2.266,8.264 1.657,2.912 5.36,3.925 8.268,2.269 L 6.002,10.532 C 8.909,8.874 9.927,5.174 8.268,2.267 7.151,0.303 5.103,-0.797 2.996,-0.797 1.979,-0.797 0.947,-0.539 0,0" /></g><g
           transform="translate(358.3512,327.2868)"
           id="g3898"><path
             id="path3900"
             style="fill:#da1b35;fill-opacity:1;fill-rule:nonzero;stroke:none"
             d="m 0,0 -160.651,91.219 c -2.907,1.649 -3.93,5.349 -2.275,8.261 1.651,2.91 5.349,3.929 8.262,2.28 L 5.988,10.54 C 8.896,8.891 9.917,5.191 8.264,2.281 7.147,0.313 5.098,-0.788 2.988,-0.788 1.972,-0.788 0.946,-0.535 0,0" /></g><g
           transform="translate(382.5159,341.2719)"
           id="g3902"><path
             id="path3904"
             style="fill:#da1b35;fill-opacity:1;fill-rule:nonzero;stroke:none"
             d="m 0,0 -160.874,91.042 c -2.915,1.651 -3.938,5.346 -2.293,8.261 1.652,2.909 5.347,3.936 8.257,2.288 L 5.97,10.547 C 8.884,8.897 9.908,5.202 8.26,2.286 7.143,0.318 5.094,-0.789 2.978,-0.789 1.968,-0.789 0.943,-0.535 0,0" /></g></g></g></g></svg>