<?xml version="1.0" encoding="utf-8"?>
<!-- Generator: Adobe Illustrator 27.5.0, SVG Export Plug-In . SVG Version: 6.00 Build 0)  -->
<svg version="1.1" id="Layer_1" xmlns="http://www.w3.org/2000/svg" xmlns:xlink="http://www.w3.org/1999/xlink" x="0px" y="0px"
	 viewBox="0 0 198.2 198.2" style="enable-background:new 0 0 198.2 198.2;" xml:space="preserve">
<style type="text/css">
	.st0{fill:#54AA50;}
	.st1{fill:#116FB8;}
</style>
<path class="st0" d="M106.8,4.7c-1.1,3.1-10.3,31.9-10.3,95.3c0,41.7,3.5,65.3,6.5,77.7c0.9,3.8,2.3,4.4,4.4,4.3
	c0.9,0,1.8-0.5,2.3-1.2c0.6-0.9,0.8-1.9,0.7-3c-0.6-12.3-0.8-24-0.7-34.8c0.6-46.6,8-56.3,14.4-59.4c2.2-1.1,4.7-1.1,6.9,0.1
	c5,2.7,6.1,10,8,26.3c0.7,6.1,1.5,12.9,2.7,19l5.6-9.4c0.7-1.2,1.9-2.1,3.2-2.6c0.1,0,8-2.8,17.1-10.6c10.1-8.7,17.9-19.6,22.8-32
	l0.8-1.9C180.1,34.4,146.6,7.1,107,3.9L106.8,4.7z"/>
<path class="st1" d="M5.9,97.1c1.6,3.6,6,12,13,13.8c5.4,1.4,11.9-1.5,19.4-8.5c2.4-2.2,6.2-2.1,8.4,0.3c0.7,0.8,1.2,1.7,1.4,2.7
	c1.2,4.7,2.6,9.3,4.3,13.8c0.9,2.4,1.8,4.5,2.7,6.3c0.2,0.4,0.6,0.7,1,0.7c0.2,0,0.5-0.1,0.6-1c0.5-10.9,0.6-12.1,0.7-12.4
	c0-0.1,0-0.4,0.1-1.5V111c1.1-26.2,2.7-65.9,18.4-104.4C35.6,16.9,6.7,51.9,4.2,93.3L5.9,97.1z"/>
<path class="st1" d="M84.6,100c0-31.9,2.1-59.2,6.3-81c0.2-0.6,0.1-1.3-0.3-1.9c-0.5-0.6-1.2-0.9-2-0.9c-2.5-0.2-4.2,1.2-5.2,4
	C71.7,53.4,70.3,86.1,69.2,110l-0.1,1.6c-0.8,18.7-1.2,27.3-6.3,30.8c-2,1.4-4.6,1.8-7,1C48,140.8,42.4,128,39,117
	c-8,5.4-15.8,7.2-23.1,5.3c-3.8-1-7.3-2.9-10.2-5.5c8.2,43.6,45.4,75.8,89.8,77.7C94.3,191.7,84.6,166.2,84.6,100z"/>
<path class="st0" d="M156.4,127.4l-11.7,19.4c-1.7,2.8-5.3,3.7-8.1,2c-1.1-0.6-1.9-1.6-2.4-2.7c-4-9.1-5.6-22.8-7-34.8
	c-0.3-2.4-0.6-5.1-0.9-7.7c0-0.2-0.1-0.4-0.4-0.4l0,0c-0.5,0-0.6,0.1-0.8,0.7c-2.1,8.7-3.3,22-3.5,39.3c-0.3,23.4,1.5,47.4,1.6,48.5
	v0.1c42.3-10.8,71.9-48.9,71.9-92.5c0-2.3-0.1-4.5-0.2-6.8C181,115.4,162.5,124.8,156.4,127.4z"/>
</svg>
